<svg width="1920" height="1195" viewBox="0 0 1920 1195" fill="none" xmlns="http://www.w3.org/2000/svg">
<g opacity="0.5" clip-path="url(#clip0)">
<path d="M295.912 1108.1C474.283 1063.03 652.306 972.564 832.295 1006.85C967.968 1032.11 1087.66 1127.28 1226.01 1130.08C1367.21 1133.11 1488.83 1041.27 1617.41 983.861C1746 926.455 1926.24 918.558 1998.85 1038.93C2131.16 704.813 2288.43 381.31 2468.77 70.5714C1988.94 -155.177 1493.41 -346.306 987.519 -501.524C835.524 -548.481 669.648 -590.526 521.109 -534.724C349.675 -468.994 42.091 -399.455 -33.4998 -231C-166.97 64.2743 -78.1339 478.929 -167.626 790.945C-250.989 1083.93 47.7605 1171.68 295.912 1108.1Z" fill="url(#paint0_linear)"/>
</g>
<g clip-path="url(#clip1)">
<path opacity="0.3" d="M269.901 1024.62C449.961 986.847 631.524 903.716 809.966 945.304C944.497 976.075 1060.21 1076.04 1198.33 1084.48C1339.29 1093.26 1464.55 1006.46 1595.37 954.337C1726.18 902.219 1906.6 901.675 1974.24 1024.91C2120.06 696.459 2290.38 379.635 2483.24 76.5044C2013.01 -168.612 1525.68 -379.778 1026.54 -555.486C876.582 -608.599 712.557 -657.37 561.867 -607.668C387.897 -548.979 77.734 -492.034 -4.65959 -326.8C-150.053 -37.2106 -78.1908 380.72 -180.325 688.829C-275.56 978.177 19.3647 1078.03 269.901 1024.62Z" fill="#3BD1BB"/>
</g>
<g clip-path="url(#clip2)">
<path opacity="0.3" d="M296.003 1079.03C474.374 1033.95 652.398 943.489 832.387 977.77C968.06 1003.03 1087.75 1098.2 1226.1 1101C1367.3 1104.03 1488.92 1012.19 1617.5 954.786C1746.09 897.379 1926.33 889.482 1998.94 1009.86C2131.25 675.737 2288.52 352.235 2468.86 41.496C1989.04 -184.252 1493.5 -375.381 987.611 -530.6C835.616 -577.557 669.739 -619.602 521.2 -563.8C349.767 -498.069 42.1827 -428.531 -33.4081 -260.076C-166.878 35.1988 -78.0423 449.853 -167.534 761.869C-250.897 1054.86 47.8522 1142.61 296.003 1079.03Z" fill="#3BD1BB"/>
</g>
<g clip-path="url(#clip3)">
<path opacity="0.3" d="M296.003 1079.03C474.374 1033.95 652.398 943.489 832.387 977.77C968.06 1003.03 1087.75 1098.2 1226.1 1101C1367.3 1104.03 1488.92 1012.19 1617.5 954.786C1746.09 897.379 1926.33 889.482 1998.94 1009.86C2131.25 675.737 2288.52 352.235 2468.86 41.4959C1989.04 -184.253 1493.5 -375.381 987.611 -530.6C835.616 -577.557 669.739 -619.602 521.2 -563.8C349.767 -498.07 42.1827 -428.531 -33.4081 -260.076C-166.878 35.1987 -78.0423 449.853 -167.534 761.869C-250.897 1054.86 47.8522 1142.61 296.003 1079.03Z" fill="#3BD1BB"/>
</g>
<g opacity="0.3" clip-path="url(#clip4)">
<path d="M896.8 386.151C1024.16 421.773 1162.85 434.209 1271.05 519.922C1372.94 601.37 1428.22 735.919 1543.4 795.778C1620.62 836.919 1705.36 831.602 1787.38 841.593C1869.83 851.058 1967.58 889.678 2000.46 966.495C2160.12 790.926 2303.25 600.993 2428.81 399.33C2094.14 117.297 1744.22 -147.386 1381.65 -392.591C1300.45 -447.495 1208.65 -504.047 1121.54 -497.158C1055.18 -491.733 1006.77 -449.74 963.112 -408.247C785.935 -233.838 317.592 222.647 896.8 386.151Z" fill="url(#paint1_linear)"/>
</g>
<g opacity="0.3" clip-path="url(#clip5)">
<path d="M-125.107 798.551C-55.3358 686.203 -4.66484 556.503 107.85 476.551C214.513 401.453 359.145 385.947 448.787 292.067C509.857 229.404 528.415 146.55 560.912 70.5853C593.025 -5.93863 657.406 -89.0193 740.35 -99.1442C616.349 -301.475 473.943 -491.956 315.364 -668.827C-48.9059 -426.232 -400.776 -164.145 -737.473 115.524C-812.868 178.159 -892.807 250.518 -910.517 336.086C-923.838 401.319 -897.035 459.532 -869.385 513.04C-751.391 731.873 -443.852 1309.06 -125.107 798.551Z" fill="url(#paint2_linear)"/>
</g>
<g opacity="0.3" clip-path="url(#clip6)">
<path d="M-115.727 759.55C-33.8597 655.684 30.9624 532.446 151.694 465.543C266.067 402.812 411.527 403.537 511.081 320.241C578.76 264.781 606.444 184.514 647.212 112.649C687.659 40.1842 760.906 -35.1967 844.462 -36.0063C743.805 -250.906 623.534 -456.083 485.674 -649.539C96.6167 -449.09 -282.292 -227.889 -648.084 12.4778C-729.995 66.312 -817.506 129.303 -844.65 212.361C-865.165 275.701 -845.022 336.541 -823.513 392.799C-730.665 623.428 -489.428 1231.32 -115.727 759.55Z" fill="url(#paint3_linear)"/>
</g>
<path d="M960.996 680.566C937.922 678.122 915.191 684.582 894.545 694.708C875.808 703.786 858.11 715.658 842.321 729.101C812.478 754.416 787.32 787.412 775.869 825.47C764.244 863.53 768.929 903.685 787.32 938.777C806.579 975.615 838.157 1004.94 873.378 1026.07C912.07 1049.11 956.313 1062.73 1001.08 1065.35C1042.2 1067.79 1086.09 1061.16 1120.62 1037.24C1152.03 1015.42 1170.59 980.328 1175.45 942.443C1180.48 903.511 1171.46 864.228 1152.2 830.184C1131.72 794.045 1101.36 764.541 1067.88 740.798C1031.44 714.785 988.932 692.089 943.647 688.772C932.717 687.899 921.784 688.423 911.028 690.169C909.292 690.518 909.986 692.962 911.722 692.787C957.875 685.28 1003.33 703.437 1042.2 727.18C1076.55 748.131 1108.65 774.143 1133.11 806.268C1156.88 837.517 1172.5 874.53 1174.06 914.161C1175.45 951.172 1164.87 989.405 1139.71 1016.99C1111.77 1047.72 1070.13 1060.64 1029.88 1062.91C986.677 1065.17 942.605 1056.27 903.047 1038.46C832.257 1006.69 763.897 938.253 772.746 853.929C776.736 814.997 796.863 779.381 823.062 751.098C836.422 736.783 851.343 724.038 867.653 713.214C886.044 700.993 906.171 690.343 927.858 685.28C938.788 682.836 949.892 681.963 961.17 683.185C962.732 683.36 962.732 680.741 960.996 680.566Z" fill="#1A7F72"/>
<path d="M978.522 1074.43C954.926 1082.63 929.245 1078.97 905.129 1075.13C882.053 1071.28 859.151 1065.87 837.289 1057.84C795.822 1042.65 757.304 1017.17 732.319 979.804C709.243 945.236 701.436 903.685 711.499 863.182C721.215 823.9 745.506 788.634 776.563 763.319C847.873 704.484 949.546 700.469 1036.99 711.468C1062.5 714.61 1087.83 719.673 1112.47 726.831C1133.11 732.767 1154.63 739.925 1171.63 753.717C1189.5 768.208 1198.35 789.507 1197.66 812.552C1196.96 836.471 1186.55 858.642 1173.19 878.021C1148.38 914.334 1115.59 946.284 1081.24 973.17C1046.54 1000.41 1008.36 1022.93 967.763 1039.86C958.047 1043.88 948.159 1047.72 938.094 1051.21C936.534 1051.73 937.228 1054.35 938.788 1053.83C1024.5 1024.32 1101.71 970.899 1159.31 900.541C1186.9 867.021 1213.97 820.235 1192.97 776.238C1183.95 757.209 1166.25 744.813 1147.69 736.433C1125.31 726.482 1101.02 720.372 1077.07 715.483C1028.49 705.532 977.654 701.517 928.206 705.706C882.746 709.373 837.116 720.895 797.73 744.813C728.502 786.888 681.83 875.751 715.663 955.013C732.84 995.168 766.153 1026.24 804.15 1046.15C825.317 1057.32 848.22 1065.17 871.47 1070.94C895.239 1076.7 920.225 1081.59 944.687 1081.93C956.313 1082.11 967.937 1080.89 979.042 1076.87C980.778 1076.35 980.084 1073.73 978.522 1074.43Z" fill="#1A7F72"/>
<path d="M784.485 834.098C789.635 828.915 789.635 820.514 784.485 815.334C779.336 810.153 770.987 810.153 765.837 815.334C760.688 820.514 760.688 828.915 765.837 834.098C770.987 839.279 779.336 839.279 784.485 834.098Z" fill="#1A7F72"/>
<path d="M804.15 680.217C804.15 684.582 800.68 688.248 796.169 688.248C791.831 688.248 788.188 684.756 788.188 680.217C788.188 675.853 791.658 672.187 796.169 672.187C800.68 672.361 804.15 675.853 804.15 680.217Z" fill="#1A7F72"/>
<path d="M761.815 946.982C761.815 951.346 758.345 955.013 753.834 955.013C749.496 955.013 745.853 951.522 745.853 946.982C745.853 942.617 749.323 938.951 753.834 938.951C758.345 939.125 761.815 942.617 761.815 946.982Z" fill="#1A7F72"/>
<path d="M1095.64 818.138C1095.64 821.805 1092.69 824.772 1089.04 824.772C1085.4 824.772 1082.45 821.805 1082.45 818.138C1082.45 814.473 1085.4 811.506 1089.04 811.506C1092.69 811.506 1095.64 814.473 1095.64 818.138Z" fill="#1A7F72"/>
<path d="M867.653 814.647C867.653 816.393 866.265 817.79 864.529 817.79C862.794 817.79 861.406 816.393 861.406 814.647C861.406 812.902 862.794 811.506 864.529 811.506C866.265 811.506 867.653 812.902 867.653 814.647Z" fill="#1A7F72"/>
<path d="M1067.53 639.888C1067.53 642.507 1065.27 644.777 1062.67 644.777C1060.07 644.777 1057.81 642.507 1057.81 639.888C1057.81 637.27 1060.07 635 1062.67 635C1065.45 635.175 1067.53 637.27 1067.53 639.888Z" fill="#1A7F72"/>
<path d="M1067.53 1035.32C1067.53 1037.94 1065.27 1040.21 1062.67 1040.21C1060.07 1040.21 1057.81 1037.94 1057.81 1035.32C1057.81 1032.7 1060.07 1030.43 1062.67 1030.43C1065.45 1030.43 1067.53 1032.53 1067.53 1035.32Z" fill="#1A7F72"/>
<path d="M1255.09 927.603C1255.09 933.887 1249.88 939.125 1243.64 939.125C1237.39 939.125 1232.18 933.887 1232.18 927.603C1232.18 921.317 1237.39 916.081 1243.64 916.081C1250.05 916.081 1255.09 921.143 1255.09 927.603Z" fill="#1A7F72"/>
<path d="M686.167 1032.18C692.971 1032.18 698.486 1026.63 698.486 1019.78C698.486 1012.94 692.971 1007.39 686.167 1007.39C679.364 1007.39 673.849 1012.94 673.849 1019.78C673.849 1026.63 679.364 1032.18 686.167 1032.18Z" fill="#1A7F72"/>
<path d="M674.716 745.511C674.716 748.13 672.461 750.4 669.858 750.4C667.255 750.4 665 748.13 665 745.511C665 742.718 667.255 740.623 669.858 740.623C672.461 740.623 674.716 742.718 674.716 745.511Z" fill="#1A7F72"/>
<path d="M1176.84 785.841C1183.16 785.841 1188.29 780.682 1188.29 774.318C1188.29 767.954 1183.16 762.796 1176.84 762.796C1170.51 762.796 1165.39 767.954 1165.39 774.318C1165.39 780.682 1170.51 785.841 1176.84 785.841Z" fill="#1A7F72"/>
<path d="M852.384 986.262L861.406 978.756C857.416 969.502 847.7 967.932 842.321 967.758L833.125 972.646C835.728 986.262 852.384 986.262 852.384 986.262Z" fill="#1D3542"/>
<path d="M927.684 976.661C927.684 976.661 912.936 967.584 903.047 979.106C903.047 979.106 894.025 971.599 878.409 983.295L872.684 985.74C872.684 985.74 888.3 998.135 905.649 989.057C905.649 989.057 932.717 993.247 933.585 985.74C934.279 978.408 927.684 976.661 927.684 976.661Z" fill="#1D3542"/>
<path d="M975.05 808.188C975.05 808.188 1022.77 787.412 1031.79 746.908C1040.81 706.405 1006.28 661.711 1006.28 661.711C1006.28 661.711 863.141 784.968 894.373 810.631C910.508 823.9 975.05 818.138 975.05 818.138" fill="#1D3542"/>
<path opacity="0.22" d="M918.315 762.795C918.315 762.795 933.931 802.6 962.732 800.856C991.534 799.283 1011.83 762.272 1013.57 743.417C1015.3 724.736 915.02 742.02 918.315 762.795Z" fill="#1D3542"/>
<path d="M919.877 1007.74C919.877 1007.74 888.646 1055.75 886.912 1063.25C886.912 1063.25 780.727 1069.02 756.089 1079.84C731.452 1090.66 722.43 1122.96 743.771 1139.37C765.112 1155.79 907.385 1161.72 946.943 1147.58C946.943 1147.58 1150.98 1174.81 1185.51 1135.18C1220.04 1095.38 1123.05 1056.62 1040.81 1060.63C1040.81 1060.63 1012.01 1003.55 996.393 996.04C980.778 988.707 919.877 1007.74 919.877 1007.74Z" fill="#1F5148"/>
<path opacity="0.23" d="M805.538 1082.28C803.976 1084.03 795.648 1088.04 803.976 1091.36C812.131 1094.68 857.416 1119.47 869.041 1116.15C880.491 1112.84 813.866 1073.21 805.538 1082.28Z" fill="#D25A5C"/>
<path opacity="0.23" d="M1048.96 1111.96C1050.7 1112.14 1086.09 1103.06 1101.71 1096.43C1117.32 1089.79 1120.62 1084.9 1124.79 1084.9C1128.95 1084.9 1128.08 1076.7 1116.63 1077.4C1105.18 1078.27 1057.47 1098.87 1057.47 1098.87L1049.14 1113.19" fill="#D25A5C"/>
<path opacity="0.23" d="M1037.51 1091.36C1037.51 1091.36 999.689 1099.57 993.964 1098.87C988.238 1098 1005.41 1062.38 1045.84 1059.06C1045.84 1059.06 1006.28 1058.19 980.084 1088.04C953.71 1117.9 931.501 1080.54 915.02 1072.33C915.02 1072.33 941.392 1105.85 942.605 1110.22C942.605 1110.22 983.553 1104.98 995.351 1106.9C995.351 1106.9 1025.19 1107.25 1039.59 1091.01L1037.51 1091.36Z" fill="#1F5148"/>
<path d="M896.629 1107.42C908.599 1112.84 921.787 1112.84 934.625 1111.61C949.026 1110.39 963.426 1108.47 977.828 1107.95C992.922 1107.25 1008.02 1107.25 1023.11 1108.65C1027.62 1109 1032.13 1109.34 1036.64 1110.57C1040.64 1111.44 1044.45 1112.66 1048.27 1113.71C1056.25 1116.15 1064.58 1118.42 1072.39 1121.39C1073.08 1121.74 1073.43 1120.52 1072.73 1120.17C1065.97 1117.55 1059.03 1115.45 1052.09 1113.36C1045.32 1111.27 1038.21 1108.82 1031.09 1107.95C1001.42 1104.63 971.755 1106.2 942.259 1109.52C927.338 1111.09 911.376 1112.66 897.148 1106.2C896.455 1106.03 895.935 1107.08 896.629 1107.42Z" fill="black"/>
<path d="M885.176 1123.14C906.691 1135.88 930.287 1144.79 954.577 1149.67C955.271 1149.85 955.619 1148.63 954.926 1148.45C930.635 1143.56 907.211 1134.66 885.696 1122.09C885.176 1121.56 884.482 1122.79 885.176 1123.14Z" fill="#040404"/>
<path d="M842.841 1097.12C830.175 1093.98 816.816 1091.01 804.15 1095.55C803.456 1095.9 803.803 1096.95 804.497 1096.77C816.989 1092.24 830.175 1095.2 842.494 1098.35C843.362 1098.52 843.535 1097.47 842.841 1097.12Z" fill="black"/>
<g opacity="0.49">
<path opacity="0.49" d="M941.218 1109.17C936.706 1102.54 932.023 1095.9 927.512 1089.09L941.218 1109.17Z" fill="#D25A5C"/>
</g>
<path d="M1041.31 1060.22C1035.59 1060.39 1030.04 1061.79 1024.66 1063.54C1019.28 1065.11 1013.9 1067.2 1008.87 1070C1008.18 1070.35 1008.87 1071.39 1009.56 1071.04C1014.42 1068.43 1019.63 1066.33 1025.01 1064.76C1030.21 1063.19 1035.76 1061.79 1041.31 1061.62C1042.01 1061.44 1042.01 1060.22 1041.31 1060.22Z" fill="#050505"/>
<path d="M887.326 1063.08C896.001 1063.43 904.329 1067.27 910.403 1073.56C910.922 1074.08 911.79 1073.21 911.27 1072.68C905.023 1066.05 896.349 1062.21 887.326 1061.86C886.458 1061.86 886.458 1063.08 887.326 1063.08Z" fill="#151515"/>
<path d="M1033.18 1096.25C1022.77 1101.66 1012.01 1105.85 1000.04 1106.03C999.169 1106.03 999.169 1107.25 1000.04 1107.25C1012.18 1107.08 1023.11 1102.89 1033.7 1097.3C1034.56 1097.12 1033.87 1095.9 1033.18 1096.25Z" fill="black"/>
<path d="M884.308 845.724C884.308 847.294 880.839 859.167 877.369 889.894C873.898 920.795 856.028 963.044 856.375 967.932C856.548 972.819 845.27 977.533 836.422 998.659C827.573 1019.78 808.488 1034.8 803.629 1039.16C803.629 1039.16 793.566 1036.37 782.983 1037.59C772.399 1038.99 762.336 1036.02 760.6 1032.88C760.6 1032.88 755.916 1037.24 760.08 1041.26C764.418 1045.27 774.134 1041.43 776.736 1046.32C779.513 1051.21 773.266 1058.89 767.367 1056.62C761.468 1054.35 759.733 1050.34 758.692 1047.89C757.825 1045.45 761.468 1035.32 753.834 1033.23C753.834 1033.23 751.578 1047.02 752.619 1050.34C752.619 1050.34 742.209 1039.16 736.657 1044.4C736.657 1044.4 746.894 1052.95 747.935 1055.4C747.935 1055.4 739.607 1051.73 737.351 1056.8C737.351 1056.8 744.985 1061.33 748.282 1062.03C751.578 1062.73 754.181 1063.43 755.916 1065.87C755.916 1065.87 746.72 1064.65 746.2 1069.71C746.2 1069.71 755.222 1069.36 759.386 1070.76C763.55 1072.16 779.339 1073.21 784.891 1069.54C790.443 1065.87 867.653 1023.45 884.656 983.646C884.656 983.646 905.303 913.112 905.303 896.526" fill="#F4A082"/>
<path opacity="0.21" d="M868.867 928.302C868.867 928.302 886.218 963.916 908.427 977.883C930.635 992.024 897.668 902.638 868.867 928.302Z" fill="#D18161"/>
<path d="M1048.27 848.865C1048.1 850.438 1050.35 855.325 1053.65 886.226C1056.95 917.127 1074.47 959.551 1074.12 964.441C1073.78 969.328 1085.05 974.216 1093.9 995.342C1102.58 1016.47 1121.66 1031.65 1126.35 1036.02C1126.35 1036.02 1136.41 1033.23 1146.99 1034.62C1157.58 1036.02 1167.64 1033.23 1169.55 1030.08C1169.55 1030.08 1174.23 1034.45 1169.9 1038.46C1165.56 1042.3 1155.84 1038.46 1153.24 1043.35C1150.46 1048.24 1156.71 1055.92 1162.61 1053.83C1168.51 1051.73 1170.42 1047.54 1171.28 1045.1C1172.32 1042.65 1168.68 1032.53 1176.14 1030.43C1176.14 1030.43 1178.23 1044.23 1177.36 1047.54C1177.36 1047.54 1187.77 1036.54 1193.32 1041.78C1193.32 1041.78 1182.91 1050.34 1182.04 1052.78C1182.04 1052.78 1190.54 1049.11 1192.62 1054.18C1192.62 1054.18 1184.99 1058.72 1181.69 1059.41C1178.4 1060.11 1175.8 1060.81 1174.06 1063.08C1174.06 1063.08 1183.26 1061.86 1183.78 1066.92C1183.78 1066.92 1174.75 1066.4 1170.59 1067.79C1166.42 1069.19 1150.64 1070.06 1145.08 1066.4C1139.53 1062.73 1062.67 1019.61 1046.01 979.804C1046.01 979.804 1025.89 909.097 1026.06 892.511" fill="#F4A082"/>
<path opacity="0.21" d="M1045.84 994.469C1045.84 994.469 1061.46 967.932 1075.51 964.615C1089.39 961.471 1038.38 931.619 1045.84 994.469Z" fill="#D18161"/>
<path d="M918.315 1011.05L902.699 898.447L883.095 852.008C883.095 852.008 879.277 840.31 923.174 819.012C967.592 797.539 1045.67 823.202 1048.62 851.484C1051.74 882.735 1029.36 892.687 1029.36 892.687L1012.01 1011.05C1012.01 1011.05 971.755 1031.83 918.315 1011.05Z" fill="#F4A082"/>
<path opacity="0.21" d="M908.427 977.883C908.253 979.804 984.247 1030.78 1020.86 1002.67C1057.29 974.566 915.885 918.35 908.427 977.883Z" fill="#D18161"/>
<path d="M927.858 818.836C926.47 823.028 951.108 793.173 948.678 750.225H976.44C976.44 750.225 976.44 803.649 1004.55 820.409C1004.72 820.583 960.477 861.786 927.858 818.836Z" fill="#F4A082"/>
<path opacity="0.34" d="M962.212 800.856C976.105 800.856 987.371 791.788 987.371 780.603C987.371 769.418 976.105 760.351 962.212 760.351C948.317 760.351 937.054 769.418 937.054 780.603C937.054 791.788 948.317 800.856 962.212 800.856Z" fill="#D18161"/>
<path d="M895.239 1107.08C895.239 1107.08 891.943 1098 888.646 1088.04C885.35 1078.09 871.296 1077.22 860.712 1083.16C849.955 1088.92 827.747 1075.65 819.592 1074.95C811.437 1074.08 799.812 1074.95 802.242 1081.59C805.191 1089.27 815.428 1082.46 819.592 1087.35C823.756 1092.24 871.47 1123.84 885.35 1123.84C885.35 1123.66 895.239 1121.22 895.239 1107.08Z" fill="#F4A082"/>
<path d="M1034.56 1095.03C1034.56 1095.03 1038.73 1086.3 1042.89 1076.7C1047.06 1067.1 1061.11 1067.62 1071.17 1074.43C1081.24 1081.24 1104.66 1070.24 1112.99 1070.24C1121.32 1070.24 1132.59 1072.16 1129.47 1078.44C1125.83 1085.95 1116.28 1077.92 1111.77 1082.46C1107.26 1087 1056.77 1113.71 1042.72 1112.31C1042.72 1112.49 1033.18 1109 1034.56 1095.03Z" fill="#F4A082"/>
<path d="M887.78 842.23C888.82 842.23 1025.54 892.861 1051.22 866.673C1051.22 866.673 1056.42 908.748 1062.32 924.81C1068.92 942.967 1075.51 963.742 1075.51 964.614C1075.51 964.614 1066.49 963.044 1038.55 991.152C1000.73 1029.21 918.837 994.643 868.867 927.951C868.693 927.951 874.42 841.532 887.78 842.23Z" fill="#FFD2B9"/>
<path d="M875.724 882.709C888.861 875.228 906.186 886.958 919.469 879.647C920.912 878.799 922.357 877.777 923.945 877.438C925.388 877.099 926.976 877.438 928.422 877.607C942.713 879.988 957.007 882.367 971.156 884.918C974.909 885.599 978.806 886.279 982.705 886.279C987.758 886.279 992.955 885.257 997.865 886.958C1000.17 887.808 1002.2 889.169 1004.5 890.019C1010.43 892.398 1016.92 891.548 1023.27 890.528C1031.79 889.339 1040.31 887.977 1048.83 886.788C1051.28 886.449 1054.6 886.788 1054.89 889.508C1055.04 892.398 1051.43 893.079 1048.83 893.079C1041.03 893.079 1033.24 895.629 1025.44 896.649C1019.81 897.328 1014.18 897.158 1008.4 896.819C981.26 895.799 953.974 894.268 926.833 892.398C921.635 892.059 916.293 891.718 911.24 890.698C909.363 890.359 907.486 889.848 905.755 890.359C904.31 890.698 902.867 891.718 901.422 892.229C895.648 894.268 889.873 888.488 883.954 888.997C881.354 889.169 878.757 890.528 876.158 890.359C873.559 890.189 870.959 886.788 872.548 884.579" fill="#FCEBE6"/>
<path d="M874.237 907.793C874.801 904.266 878.894 903.033 882 904.09C884.965 905.147 887.505 907.793 890.469 909.026C899.505 913.257 909.385 904.971 919.126 905.5C925.76 905.854 931.972 910.26 938.466 909.379C940.442 909.026 942.277 908.321 944.112 908.145C948.205 907.616 952.3 909.026 956.252 910.083C969.38 913.61 983.073 913.962 996.624 914.315C1004.95 914.491 1013.14 914.667 1021.47 914.843C1028.95 915.02 1036.57 915.196 1043.77 912.905C1046.6 912.024 1049.28 910.788 1052.24 910.788C1055.21 910.788 1058.31 912.376 1059.3 915.372C1050.97 916.782 1042.64 918.017 1034.31 919.427C1030.22 920.132 1026.27 920.837 1022.17 920.837C1015.96 921.013 1009.75 920.132 1003.54 919.779C984.203 918.722 964.721 923.482 945.665 920.132C940.583 919.251 935.642 917.665 930.56 918.194C926.183 918.546 921.95 920.308 917.573 920.132C914.326 919.956 911.22 918.898 907.975 917.841C896.963 914.491 885.388 913.434 873.953 914.843C872.543 912.376 871.131 909.731 869.86 907.264C871.554 907.264 873.248 907.088 874.942 907.088" fill="#FCEBE6"/>
<path d="M855.056 935.376C861.569 931.004 870.098 932.053 877.385 934.326C884.828 936.775 891.961 940.273 899.712 940.273C907.001 940.273 913.98 937.299 921.113 936.949C932.587 936.425 943.905 942.372 955.225 940.797C960.032 940.099 964.684 938 969.49 937.65C973.057 937.299 976.623 938 980.189 938.698C987.322 940.099 994.455 941.324 1001.43 942.722C1003.6 943.072 1005.77 943.597 1008.1 943.42C1011.05 943.246 1013.68 942.022 1016.47 940.973C1023.3 938.35 1030.27 936.251 1037.4 934.676C1041.28 933.801 1045.47 933.277 1048.88 935.026C1050.28 935.727 1051.36 936.775 1052.91 937.299C1055.7 938.174 1058.65 936.425 1061.44 935.727C1064.23 935.026 1068.26 936.425 1068.11 939.398C1060.05 942.372 1051.05 940.973 1042.52 941.324C1033.37 941.848 1024.54 944.471 1015.54 946.046C1001.43 948.493 987.011 948.319 972.9 945.696C968.094 944.821 963.287 943.42 958.481 943.246C952.743 943.072 947.006 944.295 941.268 944.995C926.849 946.921 912.429 945.87 898.007 944.645C890.099 944.121 882.191 943.42 874.283 942.896C868.237 942.372 862.034 942.022 855.987 940.449C854.746 940.099 853.351 939.575 852.575 938.524C851.8 937.299 852.42 935.376 853.816 935.376" fill="#FCEBE6"/>
<path d="M911.484 964.91C916.178 962.17 921.52 963.082 926.474 965.093C931.296 967.101 936.118 969.844 941.072 970.575C955.408 972.949 970.398 958.879 983.822 966.189C986.168 967.467 988.384 969.295 990.992 969.295C992.946 969.112 994.64 967.833 996.466 967.284C1001.68 965.275 1007.28 968.015 1012.24 970.575C1014.06 971.489 1016.15 972.584 1018.1 971.852C1019.54 971.306 1020.71 969.844 1022.01 968.93C1025.14 967.101 1028.66 968.93 1032.05 969.478C1037 970.392 1041.95 968.747 1047.04 967.833C1051.99 966.921 1057.46 966.921 1061.5 970.575C1058.51 973.498 1054.47 974.412 1050.69 974.595C1038.04 975.692 1025.14 972.949 1012.89 977.152C1010.93 977.883 1008.98 978.615 1007.02 978.615C1004.81 978.432 1002.72 977.335 1000.64 976.421C992.686 972.767 984.214 972.767 975.872 972.767C972.484 972.767 968.964 972.767 965.576 973.132C957.624 974.229 949.804 978.066 941.854 977.701C932.208 977.152 923.086 970.758 913.44 970.575C912.006 970.575 910.572 970.575 909.27 970.027C907.966 969.295 906.924 967.467 907.444 965.641C907.966 963.813 910.312 963.63 910.572 965.458" fill="#FCEBE6"/>
<path d="M877.374 863.312C880.072 857.057 886.606 854.781 892.285 855.349C897.966 855.918 903.362 858.953 909.043 860.468C914.865 862.175 920.831 862.365 926.796 861.228C929.919 860.658 933.043 859.711 936.169 860.279C939.149 860.847 941.847 862.744 944.83 863.883C955.199 867.673 965.706 859.521 976.359 857.814C983.458 856.678 990.844 858.193 997.944 859.9C1015.27 864.072 1033.02 868.431 1050.49 865.398C1050.35 870.706 1044.81 872.413 1040.55 872.603C1023.65 873.361 1006.75 872.603 989.849 870.328C981.471 869.191 972.949 867.863 964.572 868.431C958.606 868.81 952.784 870.328 946.819 869.949C936.878 869.38 927.221 864.072 917.28 863.883C912.167 863.691 907.054 865.019 901.942 865.777C894.983 866.726 887.883 866.537 880.925 865.209C879.504 865.019 877.942 864.64 876.949 863.123C876.096 861.797 876.38 859.142 877.799 858.764" fill="#FCEBE6"/>
<path d="M940.35 990.245C955.075 990.773 969.933 991.126 984.659 988.659C987.974 988.13 991.159 987.425 994.475 987.425C997.393 987.425 1000.31 988.13 1003.1 988.835C1013.71 991.126 1024.32 993.066 1035.07 994.123C1025.78 999.588 1015.04 998.883 1004.82 997.295C994.609 995.533 984.392 992.714 974.31 994.3C968.473 995.181 962.638 997.472 956.8 997.295C952.289 997.119 947.78 995.357 944.064 992.361" fill="#FCEBE6"/>
<path opacity="0.22" d="M918.315 762.795C918.315 762.795 933.931 802.6 962.732 800.856C991.534 799.283 1011.83 762.272 1013.57 743.417C1015.3 724.736 915.02 742.02 918.315 762.795Z" fill="#1D3542"/>
<path d="M1016.69 732.243C1016.69 766.462 978.694 794.221 962.558 794.221C946.597 794.221 908.427 766.462 908.427 732.243C908.427 698.025 931.675 655.077 961.519 655.077C991.36 655.077 1016.69 698.025 1016.69 732.243Z" fill="#F4A082"/>
<path opacity="0.18" d="M961.344 673.408C961.344 673.408 980.778 714.61 1012.01 729.624C1043.24 744.639 1012.01 729.624 1012.01 729.624L973.317 672.186L950.066 667.298C950.066 667.298 915.714 718.975 920.745 734.513C925.776 750.051 920.745 734.513 920.745 734.513C920.745 734.513 949.198 679.17 967.418 673.583C985.635 667.996 957.527 665.378 957.527 665.378" fill="#A05940"/>
<path d="M961.864 674.98C961.864 674.98 933.931 693.137 920.745 734.513C920.745 734.513 913.284 752.67 918.315 762.621C923.174 772.572 942.085 785.841 938.094 798.237C938.094 798.237 938.962 819.711 920.051 834.724C920.051 834.724 938.094 827.217 953.71 856.198C953.71 856.198 986.677 838.739 1010.44 869.466C1010.44 869.466 1027.8 849.563 1044.97 875.229C1044.97 875.229 1060.59 864.402 1068.74 885.178C1068.74 885.178 1081.06 875.229 1076.9 902.638C1076.9 902.638 1090.95 914.16 1073.6 924.984C1073.6 924.984 1076.03 930.746 1066.14 936.506L1061.28 922.365C1061.28 922.365 1063.71 919.92 1069.44 919.92C1069.44 919.92 1064.58 908.398 1072.73 902.462C1072.73 902.462 1059.55 899.145 1059.55 885.004C1059.55 885.004 1044.8 894.956 1034.91 877.497C1034.91 877.497 1011.14 897.4 992.054 870.863C992.054 870.863 954.232 896.526 936.88 862.658C936.88 862.658 890.033 884.132 887.606 841.882C887.606 841.882 862.968 808.012 894.199 788.11C894.199 788.11 865.571 749.876 882.746 716.182C900.966 680.741 918.315 627.842 957.701 650.189C957.701 650.189 1026.75 619.636 1016.87 733.815C1017.04 733.815 982.511 707.278 961.864 674.98Z" fill="#1D3542"/>
<path d="M921.439 737.306C923 743.766 920.919 749.876 916.579 750.924C912.416 751.971 907.559 747.607 905.997 741.147C904.435 734.687 906.517 728.577 910.854 727.529C915.191 726.482 919.877 730.846 921.439 737.306Z" fill="#F4A082"/>
<path d="M1011.31 731.545C1009.75 738.004 1011.83 744.115 1016.17 745.162C1020.34 746.21 1025.19 741.845 1026.76 735.386C1028.32 728.926 1026.23 722.816 1021.9 721.768C1017.73 720.721 1012.87 725.085 1011.31 731.545Z" fill="#F4A082"/>
<path d="M873.03 921.667C855.681 915.905 848.393 936.506 848.393 936.506C836.075 931.619 832.778 947.33 832.778 947.33C822.021 956.41 832.778 968.804 832.778 968.804C832.778 970.2 832.952 971.423 833.125 972.645L842.321 967.758C840.065 967.758 838.504 967.932 838.504 967.932C842.668 959.727 836.075 950.473 836.075 950.473C848.393 951.346 852.558 940.522 852.558 940.522C896.974 957.108 908.427 905.779 908.427 905.779C908.427 905.779 890.381 927.429 873.03 921.667Z" fill="#1D3542"/>
<path d="M930.807 735.735C934.451 736.608 937.922 736.957 941.566 736.782C945.035 736.608 948.504 735.735 951.976 734.338C949.198 736.782 945.383 738.179 941.566 738.528C937.922 738.703 933.931 737.83 930.807 735.735Z" fill="#2E2430"/>
<path d="M955.271 773.794C960.303 775.889 965.682 775.366 970.367 772.747C971.235 772.223 970.367 771.001 969.673 771.525C965.336 774.143 960.303 774.318 955.619 772.398C954.752 772.048 954.403 773.445 955.271 773.794Z" fill="#A34F31"/>
<path d="M955.445 759.828C956.833 759.828 958.047 760.002 959.263 760.002C960.477 760.002 961.693 760.002 962.732 759.828C963.948 759.828 964.988 759.653 966.202 759.478C967.418 759.304 968.631 759.129 970.019 758.78C969.151 759.828 968.111 760.701 966.898 761.224C965.682 761.748 964.294 762.097 962.906 762.272C961.519 762.446 960.131 762.272 958.915 761.748C957.701 761.574 956.487 760.875 955.445 759.828Z" fill="#A34F31"/>
<path d="M975.398 735.909C979.042 736.782 982.511 737.131 986.155 736.957C989.626 736.782 993.096 735.909 996.565 734.513C993.79 736.957 989.972 738.354 986.155 738.703C982.339 738.877 978.348 738.004 975.398 735.909Z" fill="#2E2430"/>
<path d="M930.635 727.704C935.492 722.117 942.605 719.499 949.892 720.895C951.108 721.07 951.628 719.149 950.414 718.975C942.433 717.403 934.625 720.022 929.245 726.133C928.38 727.18 929.767 728.752 930.635 727.704Z" fill="#1D3542"/>
<path d="M997.087 725.435C991.708 719.324 983.899 716.705 975.918 718.277C974.704 718.451 975.224 720.372 976.44 720.197C983.727 718.8 990.84 721.244 995.697 727.006C996.393 727.879 997.781 726.482 997.087 725.435Z" fill="#1D3542"/>
<path d="M963.426 672.186C964.468 677.424 966.55 682.661 969.151 687.55C971.755 692.438 974.704 697.152 978.348 701.342C981.991 705.532 985.983 709.547 990.494 712.69C992.576 714.436 995.003 715.832 997.433 717.403C999.863 718.8 1002.29 720.022 1004.89 721.419C1002.29 720.197 999.689 719.149 997.259 717.753C994.831 716.356 992.402 715.134 990.146 713.388C985.461 710.246 981.297 706.579 977.306 702.389C973.491 698.199 970.019 693.66 967.244 688.772C964.468 683.883 962.038 678.646 960.477 672.885L963.426 672.186Z" fill="#1D3542"/>
<path d="M964.642 668.52C963.426 671.139 962.732 674.107 962.212 677.249C961.69 680.217 961.519 683.36 961.69 686.328C961.864 689.47 962.558 692.438 963.6 695.406C964.642 698.374 966.202 700.993 968.111 703.612C966.03 701.167 964.12 698.723 962.906 695.755C961.519 692.962 960.651 689.819 960.131 686.677C959.609 683.534 959.609 680.217 959.783 677.075C960.131 673.758 960.651 670.79 961.69 667.473L964.642 668.52Z" fill="#1D3542"/>
<path d="M967.418 671.837C966.03 672.71 964.468 673.932 963.08 675.154C961.69 676.376 960.477 677.773 959.263 679.17C958.047 680.566 957.007 682.138 955.965 683.709C954.926 685.28 954.058 687.026 953.364 688.772C953.884 687.026 954.578 685.105 955.271 683.36C955.965 681.614 957.007 679.868 958.047 678.297C959.089 676.725 960.131 674.98 961.519 673.583C962.732 672.012 964.12 670.615 965.682 669.218L967.418 671.837Z" fill="#1D3542"/>
<path opacity="0.56" d="M1216.57 1184.24C1216.57 1188.61 1101.88 1192.27 960.303 1192.27C818.724 1192.27 704.038 1188.78 704.038 1184.24C704.038 1179.88 818.724 1176.21 960.303 1176.21C1101.88 1176.21 1216.57 1179.88 1216.57 1184.24Z" fill="black" fill-opacity="0.2"/>
<defs>
<linearGradient id="paint0_linear" x1="937" y1="-73.5002" x2="937" y2="1361.5" gradientUnits="userSpaceOnUse">
<stop stop-color="#1A7F72"/>
<stop offset="1" stop-color="#7ADBAE"/>
</linearGradient>
<linearGradient id="paint1_linear" x1="1157.14" y1="666.093" x2="1797.47" y2="-118.113" gradientUnits="userSpaceOnUse">
<stop stop-color="#1A7F72" stop-opacity="0"/>
<stop offset="1" stop-color="#1A7F72"/>
</linearGradient>
<linearGradient id="paint2_linear" x1="216.398" y1="626.747" x2="-357.797" y2="-207.101" gradientUnits="userSpaceOnUse">
<stop stop-color="#1A7F72" stop-opacity="0"/>
<stop offset="1" stop-color="#1A7F72"/>
</linearGradient>
<linearGradient id="paint3_linear" x1="242.81" y1="626.91" x2="-234.79" y2="-265.782" gradientUnits="userSpaceOnUse">
<stop stop-color="#1A7F72" stop-opacity="0"/>
<stop offset="1" stop-color="#1A7F72"/>
</linearGradient>
<clipPath id="clip0">
<rect width="2146.26" height="1773.67" fill="white" transform="translate(1574.74 1779.95) rotate(-156.955)"/>
</clipPath>
<clipPath id="clip1">
<rect width="2151.67" height="1749.86" fill="white" transform="translate(1545.95 1760.2) rotate(-154.62)"/>
</clipPath>
<clipPath id="clip2">
<rect width="2145.54" height="1750.07" fill="white" transform="translate(1586.61 1755.89) rotate(-156.955)"/>
</clipPath>
<clipPath id="clip3">
<rect width="2146.04" height="1747.46" fill="white" transform="translate(1585.99 1755.62) rotate(-156.955)"/>
</clipPath>
<clipPath id="clip4">
<rect width="1580.86" height="999.696" fill="white" transform="translate(1725.88 1130.62) rotate(-140.767)"/>
</clipPath>
<clipPath id="clip5">
<rect width="955.685" height="609.913" fill="white" transform="translate(789.156 232.461) rotate(145.448)"/>
</clipPath>
<clipPath id="clip6">
<rect width="959.178" height="666.589" fill="white" transform="translate(846.159 304.225) rotate(151.853)"/>
</clipPath>
</defs>
</svg>
