<svg width="80" height="80" viewBox="0 0 80 80" fill="none" xmlns="http://www.w3.org/2000/svg">
<circle cx="40" cy="40" r="40" fill="url(#paint0_linear_25_550)"/>
<g filter="url(#filter0_d_25_550)">
<g filter="url(#filter1_d_25_550)">
<path d="M53.0391 38.293L35.043 27.2949C34.7398 27.1096 34.3928 27.0083 34.0376 27.0016C33.6823 26.9949 33.3317 27.0829 33.0218 27.2567C32.7119 27.4304 32.4538 27.6836 32.2742 27.9902C32.0947 28.2968 32 28.6457 32 29.001V50.999C32.0003 51.3542 32.0951 51.7029 32.2748 52.0093C32.4544 52.3157 32.7124 52.5688 33.0223 52.7425C33.3321 52.9162 33.6826 53.0043 34.0377 52.9977C34.3928 52.9911 34.7398 52.8901 35.043 52.7051L53.0391 41.707C53.3314 41.5283 53.5729 41.2774 53.7405 40.9785C53.9081 40.6796 53.9961 40.3427 53.9961 40C53.9961 39.6573 53.9081 39.3204 53.7405 39.0215C53.5729 38.7226 53.3314 38.4717 53.0391 38.293V38.293Z" fill="white"/>
</g>
</g>
<defs>
<filter id="filter0_d_25_550" x="4" y="4" width="72" height="72" filterUnits="userSpaceOnUse" color-interpolation-filters="sRGB">
<feFlood flood-opacity="0" result="BackgroundImageFix"/>
<feColorMatrix in="SourceAlpha" type="matrix" values="0 0 0 0 0 0 0 0 0 0 0 0 0 0 0 0 0 0 127 0" result="hardAlpha"/>
<feOffset/>
<feGaussianBlur stdDeviation="10"/>
<feColorMatrix type="matrix" values="0 0 0 0 1 0 0 0 0 1 0 0 0 0 1 0 0 0 0.3 0"/>
<feBlend mode="normal" in2="BackgroundImageFix" result="effect1_dropShadow_25_550"/>
<feBlend mode="normal" in="SourceGraphic" in2="effect1_dropShadow_25_550" result="shape"/>
</filter>
<filter id="filter1_d_25_550" x="30" y="26.0012" width="25.9961" height="29.9968" filterUnits="userSpaceOnUse" color-interpolation-filters="sRGB">
<feFlood flood-opacity="0" result="BackgroundImageFix"/>
<feColorMatrix in="SourceAlpha" type="matrix" values="0 0 0 0 0 0 0 0 0 0 0 0 0 0 0 0 0 0 127 0" result="hardAlpha"/>
<feOffset dy="1"/>
<feGaussianBlur stdDeviation="1"/>
<feColorMatrix type="matrix" values="0 0 0 0 0 0 0 0 0 0 0 0 0 0 0 0 0 0 0.25 0"/>
<feBlend mode="normal" in2="BackgroundImageFix" result="effect1_dropShadow_25_550"/>
<feBlend mode="normal" in="SourceGraphic" in2="effect1_dropShadow_25_550" result="shape"/>
</filter>
<linearGradient id="paint0_linear_25_550" x1="40" y1="0" x2="40" y2="80" gradientUnits="userSpaceOnUse">
<stop stop-color="#259385"/>
<stop offset="1" stop-color="#159685"/>
</linearGradient>
</defs>
</svg>
